# Building: 71c05caf-ad97-48ce-8faa-03366363d2e0
# POIs: ['Boulder County AIDS Project']
# Height: 5.428493976593018m

v -161.0057 0.0000 86.1758
v -160.3152 0.0000 83.5153
v -160.3152 5.4285 83.5153
v -161.0057 0.0000 86.1758
v -175.3622 0.0000 82.4577
v -161.0057 0.0000 86.1758
v -161.0057 5.4285 86.1758
v -175.3622 0.0000 82.4577
v -172.6853 0.0000 72.1384
v -175.3622 0.0000 82.4577
v -175.3622 5.4285 82.4577
v -172.6853 0.0000 72.1384
v -158.2265 0.0000 75.8787
v -172.6853 0.0000 72.1384
v -172.6853 5.4285 72.1384
v -158.2265 0.0000 75.8787
v -158.5590 0.0000 77.1700
v -158.2265 0.0000 75.8787
v -158.2265 5.4285 75.8787
v -158.5590 0.0000 77.1700
v -156.0696 0.0000 77.8157
v -158.5590 0.0000 77.1700
v -158.5590 5.4285 77.1700
v -156.0696 0.0000 77.8157
v -157.7235 0.0000 84.1832
v -156.0696 0.0000 77.8157
v -156.0696 5.4285 77.8157
v -157.7235 0.0000 84.1832
v -160.3152 0.0000 83.5153
v -157.7235 0.0000 84.1832
v -157.7235 5.4285 84.1832
v -160.3152 0.0000 83.5153
v -160.3152 5.4285 83.5153
v -161.0057 5.4285 86.1758
v -175.3622 5.4285 82.4577
v -160.3152 5.4285 83.5153
v -175.3622 5.4285 82.4577
v -172.6853 5.4285 72.1384
v -157.7235 5.4285 84.1832
v -160.3152 5.4285 83.5153
v -172.6853 5.4285 72.1384
v -172.6853 5.4285 72.1384
v -158.2265 5.4285 75.8787
v -158.5590 5.4285 77.1700
v -157.7235 5.4285 84.1832
v -172.6853 5.4285 72.1384
v -158.5590 5.4285 77.1700
v -157.7235 5.4285 84.1832
v -158.5590 5.4285 77.1700
v -156.0696 5.4285 77.8157

vt 0.0000 0.0000
vt 0.5063 0.0000
vt 0.5063 1.0000
vt 0.0000 1.0000
vt 0.0000 0.0000
vt 2.7319 0.0000
vt 2.7319 1.0000
vt 0.0000 1.0000
vt 0.0000 0.0000
vt 1.9639 0.0000
vt 1.9639 1.0000
vt 0.0000 1.0000
vt 0.0000 0.0000
vt 2.7512 0.0000
vt 2.7512 1.0000
vt 0.0000 1.0000
vt 0.0000 0.0000
vt 0.2456 0.0000
vt 0.2456 1.0000
vt 0.0000 1.0000
vt 0.0000 0.0000
vt 0.4737 0.0000
vt 0.4737 1.0000
vt 0.0000 1.0000
vt 0.0000 0.0000
vt 1.2119 0.0000
vt 1.2119 1.0000
vt 0.0000 1.0000
vt 0.0000 0.0000
vt 0.4930 0.0000
vt 0.4930 1.0000
vt 0.0000 1.0000
vt 0.7799 0.8105
vt 0.7441 1.0000
vt 0.0000 0.7351
vt 0.7799 0.8105
vt 0.0000 0.7351
vt 0.1388 0.0000
vt 0.9143 0.8580
vt 0.7799 0.8105
vt 0.1388 0.0000
vt 0.1388 0.0000
vt 0.8882 0.2665
vt 0.8710 0.3584
vt 0.9143 0.8580
vt 0.1388 0.0000
vt 0.8710 0.3584
vt 0.9143 0.8580
vt 0.8710 0.3584
vt 1.0000 0.4044

f 1/1 2/2 3/3
f 1/1 3/3 4/4
f 5/5 6/6 7/7
f 5/5 7/7 8/8
f 9/9 10/10 11/11
f 9/9 11/11 12/12
f 13/13 14/14 15/15
f 13/13 15/15 16/16
f 17/17 18/18 19/19
f 17/17 19/19 20/20
f 21/21 22/22 23/23
f 21/21 23/23 24/24
f 25/25 26/26 27/27
f 25/25 27/27 28/28
f 29/29 30/30 31/31
f 29/29 31/31 32/32
f 33/33 34/34 35/35
f 36/36 37/37 38/38
f 39/39 40/40 41/41
f 42/42 43/43 44/44
f 45/45 46/46 47/47
f 48/48 49/49 50/50
