# Building: 9022e165-3bc1-48c6-a382-4cfc8d5eb9fe
# POIs: ['Boulder Theater', 'Boulder Valley Real Estate']
# Height: 14.0m

v -155.0892 0.0000 -8.8914
v -157.7491 0.0000 1.1274
v -157.7491 14.0000 1.1274
v -155.0892 0.0000 -8.8914
v -152.6510 0.0000 -18.0642
v -155.0892 0.0000 -8.8914
v -155.0892 14.0000 -8.8914
v -152.6510 0.0000 -18.0642
v -111.7556 0.0000 -7.2105
v -152.6510 0.0000 -18.0642
v -152.6510 14.0000 -18.0642
v -111.7556 0.0000 -7.2105
v -116.8537 0.0000 11.9922
v -111.7556 0.0000 -7.2105
v -111.7556 14.0000 -7.2105
v -116.8537 0.0000 11.9922
v -157.7491 0.0000 1.1274
v -116.8537 0.0000 11.9922
v -116.8537 14.0000 11.9922
v -157.7491 0.0000 1.1274
v -116.8537 14.0000 11.9922
v -157.7491 14.0000 1.1274
v -155.0892 14.0000 -8.8914
v -116.8537 14.0000 11.9922
v -155.0892 14.0000 -8.8914
v -152.6510 14.0000 -18.0642
v -116.8537 14.0000 11.9922
v -152.6510 14.0000 -18.0642
v -111.7556 14.0000 -7.2105

vt 0.0000 0.0000
vt 0.7404 0.0000
vt 0.7404 1.0000
vt 0.0000 1.0000
vt 0.0000 0.0000
vt 0.6779 0.0000
vt 0.6779 1.0000
vt 0.0000 1.0000
vt 0.0000 0.0000
vt 3.0222 0.0000
vt 3.0222 1.0000
vt 0.0000 1.0000
vt 0.0000 0.0000
vt 1.4191 0.0000
vt 1.4191 1.0000
vt 0.0000 1.0000
vt 0.0000 0.0000
vt 3.0224 0.0000
vt 3.0224 1.0000
vt 0.0000 1.0000
vt 0.8892 1.0000
vt 0.0000 0.6385
vt 0.0578 0.3052
vt 0.8892 1.0000
vt 0.0578 0.3052
vt 0.1108 0.0000
vt 0.8892 1.0000
vt 0.1108 0.0000
vt 1.0000 0.3611

f 1/1 2/2 3/3
f 1/1 3/3 4/4
f 5/5 6/6 7/7
f 5/5 7/7 8/8
f 9/9 10/10 11/11
f 9/9 11/11 12/12
f 13/13 14/14 15/15
f 13/13 15/15 16/16
f 17/17 18/18 19/19
f 17/17 19/19 20/20
f 21/21 22/22 23/23
f 24/24 25/25 26/26
f 27/27 28/28 29/29
