# Building: 187961f7-c1f6-422d-8d01-9be992d5418e
# POIs: ['Boulder County Government']
# Height: 20.0m

v -234.8170 0.0000 -38.9590
v -208.9600 0.0000 -31.9792
v -208.9600 20.0000 -31.9792
v -234.8170 0.0000 -38.9590
v -233.7684 0.0000 -42.8218
v -234.8170 0.0000 -38.9590
v -234.8170 20.0000 -38.9590
v -233.7684 0.0000 -42.8218
v -237.9116 0.0000 -43.9461
v -233.7684 0.0000 -42.8218
v -233.7684 20.0000 -42.8218
v -237.9116 0.0000 -43.9461
v -236.6499 0.0000 -48.6104
v -237.9116 0.0000 -43.9461
v -237.9116 20.0000 -43.9461
v -236.6499 0.0000 -48.6104
v -235.6951 0.0000 -48.3433
v -236.6499 0.0000 -48.6104
v -236.6499 20.0000 -48.6104
v -235.6951 0.0000 -48.3433
v -233.6661 0.0000 -55.8462
v -235.6951 0.0000 -48.3433
v -235.6951 20.0000 -48.3433
v -233.6661 0.0000 -55.8462
v -234.3055 0.0000 -56.0132
v -233.6661 0.0000 -55.8462
v -233.6661 20.0000 -55.8462
v -234.3055 0.0000 -56.0132
v -233.2057 0.0000 -60.0764
v -234.3055 0.0000 -56.0132
v -234.3055 20.0000 -56.0132
v -233.2057 0.0000 -60.0764
v -229.3267 0.0000 -59.0300
v -233.2057 0.0000 -60.0764
v -233.2057 20.0000 -60.0764
v -229.3267 0.0000 -59.0300
v -228.3037 0.0000 -62.8149
v -229.3267 0.0000 -59.0300
v -229.3267 20.0000 -59.0300
v -228.3037 0.0000 -62.8149
v -217.4852 0.0000 -59.8871
v -228.3037 0.0000 -62.8149
v -228.3037 20.0000 -62.8149
v -217.4852 0.0000 -59.8871
v -214.7060 0.0000 -59.1413
v -217.4852 0.0000 -59.8871
v -217.4852 20.0000 -59.8871
v -214.7060 0.0000 -59.1413
v -212.2508 0.0000 -58.4734
v -214.7060 0.0000 -59.1413
v -214.7060 20.0000 -59.1413
v -212.2508 0.0000 -58.4734
v -202.4041 0.0000 -55.7906
v -212.2508 0.0000 -58.4734
v -212.2508 20.0000 -58.4734
v -202.4041 0.0000 -55.7906
v -203.6659 0.0000 -52.1838
v -202.4041 0.0000 -55.7906
v -202.4041 20.0000 -55.7906
v -203.6659 0.0000 -52.1838
v -203.0435 0.0000 -52.2840
v -203.6659 0.0000 -52.1838
v -203.6659 20.0000 -52.1838
v -203.0435 0.0000 -52.2840
v -199.0964 0.0000 -51.2153
v -203.0435 0.0000 -52.2840
v -203.0435 20.0000 -52.2840
v -199.0964 0.0000 -51.2153
v -200.3496 0.0000 -46.5510
v -199.0964 0.0000 -51.2153
v -199.0964 20.0000 -51.2153
v -200.3496 0.0000 -46.5510
v -201.3300 0.0000 -46.8182
v -200.3496 0.0000 -46.5510
v -200.3496 20.0000 -46.5510
v -201.3300 0.0000 -46.8182
v -203.3675 0.0000 -39.2707
v -201.3300 0.0000 -46.8182
v -201.3300 20.0000 -46.8182
v -203.3675 0.0000 -39.2707
v -202.6428 0.0000 -39.0703
v -203.3675 0.0000 -39.2707
v -203.3675 20.0000 -39.2707
v -202.6428 0.0000 -39.0703
v -203.7000 0.0000 -35.1630
v -202.6428 0.0000 -39.0703
v -202.6428 20.0000 -39.0703
v -203.7000 0.0000 -35.1630
v -207.8006 0.0000 -36.2650
v -203.7000 0.0000 -35.1630
v -203.7000 20.0000 -35.1630
v -207.8006 0.0000 -36.2650
v -208.9600 0.0000 -31.9792
v -207.8006 0.0000 -36.2650
v -207.8006 20.0000 -36.2650
v -208.9600 0.0000 -31.9792
v -207.8006 20.0000 -36.2650
v -208.9600 20.0000 -31.9792
v -234.8170 20.0000 -38.9590
v -207.8006 20.0000 -36.2650
v -234.8170 20.0000 -38.9590
v -233.7684 20.0000 -42.8218
v -207.8006 20.0000 -36.2650
v -233.7684 20.0000 -42.8218
v -237.9116 20.0000 -43.9461
v -207.8006 20.0000 -36.2650
v -237.9116 20.0000 -43.9461
v -236.6499 20.0000 -48.6104
v -207.8006 20.0000 -36.2650
v -236.6499 20.0000 -48.6104
v -235.6951 20.0000 -48.3433
v -207.8006 20.0000 -36.2650
v -235.6951 20.0000 -48.3433
v -233.6661 20.0000 -55.8462
v -233.6661 20.0000 -55.8462
v -234.3055 20.0000 -56.0132
v -233.2057 20.0000 -60.0764
v -207.8006 20.0000 -36.2650
v -233.6661 20.0000 -55.8462
v -233.2057 20.0000 -60.0764
v -207.8006 20.0000 -36.2650
v -233.2057 20.0000 -60.0764
v -229.3267 20.0000 -59.0300
v -207.8006 20.0000 -36.2650
v -229.3267 20.0000 -59.0300
v -228.3037 20.0000 -62.8149
v -207.8006 20.0000 -36.2650
v -228.3037 20.0000 -62.8149
v -217.4852 20.0000 -59.8871
v -207.8006 20.0000 -36.2650
v -217.4852 20.0000 -59.8871
v -214.7060 20.0000 -59.1413
v -207.8006 20.0000 -36.2650
v -214.7060 20.0000 -59.1413
v -212.2508 20.0000 -58.4734
v -212.2508 20.0000 -58.4734
v -202.4041 20.0000 -55.7906
v -203.6659 20.0000 -52.1838
v -207.8006 20.0000 -36.2650
v -212.2508 20.0000 -58.4734
v -203.6659 20.0000 -52.1838
v -207.8006 20.0000 -36.2650
v -203.6659 20.0000 -52.1838
v -203.0435 20.0000 -52.2840
v -207.8006 20.0000 -36.2650
v -203.0435 20.0000 -52.2840
v -199.0964 20.0000 -51.2153
v -199.0964 20.0000 -51.2153
v -200.3496 20.0000 -46.5510
v -201.3300 20.0000 -46.8182
v -207.8006 20.0000 -36.2650
v -199.0964 20.0000 -51.2153
v -201.3300 20.0000 -46.8182
v -207.8006 20.0000 -36.2650
v -201.3300 20.0000 -46.8182
v -203.3675 20.0000 -39.2707
v -207.8006 20.0000 -36.2650
v -203.3675 20.0000 -39.2707
v -202.6428 20.0000 -39.0703
v -207.8006 20.0000 -36.2650
v -202.6428 20.0000 -39.0703
v -203.7000 20.0000 -35.1630

vt 0.0000 0.0000
vt 1.3391 0.0000
vt 1.3391 1.0000
vt 0.0000 1.0000
vt 0.0000 0.0000
vt 0.2001 0.0000
vt 0.2001 1.0000
vt 0.0000 1.0000
vt 0.0000 0.0000
vt 0.2147 0.0000
vt 0.2147 1.0000
vt 0.0000 1.0000
vt 0.0000 0.0000
vt 0.2416 0.0000
vt 0.2416 1.0000
vt 0.0000 1.0000
vt 0.0000 0.0000
vt 0.0496 0.0000
vt 0.0496 1.0000
vt 0.0000 1.0000
vt 0.0000 0.0000
vt 0.3886 0.0000
vt 0.3886 1.0000
vt 0.0000 1.0000
vt 0.0000 0.0000
vt 0.0330 0.0000
vt 0.0330 1.0000
vt 0.0000 1.0000
vt 0.0000 0.0000
vt 0.2105 0.0000
vt 0.2105 1.0000
vt 0.0000 1.0000
vt 0.0000 0.0000
vt 0.2009 0.0000
vt 0.2009 1.0000
vt 0.0000 1.0000
vt 0.0000 0.0000
vt 0.1960 0.0000
vt 0.1960 1.0000
vt 0.0000 1.0000
vt 0.0000 0.0000
vt 0.5604 0.0000
vt 0.5604 1.0000
vt 0.0000 1.0000
vt 0.0000 0.0000
vt 0.1439 0.0000
vt 0.1439 1.0000
vt 0.0000 1.0000
vt 0.0000 0.0000
vt 0.1272 0.0000
vt 0.1272 1.0000
vt 0.0000 1.0000
vt 0.0000 0.0000
vt 0.5103 0.0000
vt 0.5103 1.0000
vt 0.0000 1.0000
vt 0.0000 0.0000
vt 0.1911 0.0000
vt 0.1911 1.0000
vt 0.0000 1.0000
vt 0.0000 0.0000
vt 0.0315 0.0000
vt 0.0315 1.0000
vt 0.0000 1.0000
vt 0.0000 0.0000
vt 0.2045 0.0000
vt 0.2045 1.0000
vt 0.0000 1.0000
vt 0.0000 0.0000
vt 0.2415 0.0000
vt 0.2415 1.0000
vt 0.0000 1.0000
vt 0.0000 0.0000
vt 0.0508 0.0000
vt 0.0508 1.0000
vt 0.0000 1.0000
vt 0.0000 0.0000
vt 0.3909 0.0000
vt 0.3909 1.0000
vt 0.0000 1.0000
vt 0.0000 0.0000
vt 0.0376 0.0000
vt 0.0376 1.0000
vt 0.0000 1.0000
vt 0.0000 0.0000
vt 0.2024 0.0000
vt 0.2024 1.0000
vt 0.0000 1.0000
vt 0.0000 0.0000
vt 0.2123 0.0000
vt 0.2123 1.0000
vt 0.0000 1.0000
vt 0.0000 0.0000
vt 0.2220 0.0000
vt 0.2220 1.0000
vt 0.0000 1.0000
vt 0.7758 0.8610
vt 0.7459 1.0000
vt 0.0797 0.7736
vt 0.7758 0.8610
vt 0.0797 0.7736
vt 0.1067 0.6484
vt 0.7758 0.8610
vt 0.1067 0.6484
vt 0.0000 0.6119
vt 0.7758 0.8610
vt 0.0000 0.6119
vt 0.0325 0.4606
vt 0.7758 0.8610
vt 0.0325 0.4606
vt 0.0571 0.4693
vt 0.7758 0.8610
vt 0.0571 0.4693
vt 0.1094 0.2260
vt 0.1094 0.2260
vt 0.0929 0.2206
vt 0.1212 0.0888
vt 0.7758 0.8610
vt 0.1094 0.2260
vt 0.1212 0.0888
vt 0.7758 0.8610
vt 0.1212 0.0888
vt 0.2212 0.1227
vt 0.7758 0.8610
vt 0.2212 0.1227
vt 0.2475 0.0000
vt 0.7758 0.8610
vt 0.2475 0.0000
vt 0.5262 0.0949
vt 0.7758 0.8610
vt 0.5262 0.0949
vt 0.5978 0.1191
vt 0.7758 0.8610
vt 0.5978 0.1191
vt 0.6611 0.1408
vt 0.6611 0.1408
vt 0.9148 0.2278
vt 0.8823 0.3448
vt 0.7758 0.8610
vt 0.6611 0.1408
vt 0.8823 0.3448
vt 0.7758 0.8610
vt 0.8823 0.3448
vt 0.8983 0.3415
vt 0.7758 0.8610
vt 0.8983 0.3415
vt 1.0000 0.3762
vt 1.0000 0.3762
vt 0.9677 0.5274
vt 0.9425 0.5188
vt 0.7758 0.8610
vt 1.0000 0.3762
vt 0.9425 0.5188
vt 0.7758 0.8610
vt 0.9425 0.5188
vt 0.8900 0.7635
vt 0.7758 0.8610
vt 0.8900 0.7635
vt 0.9086 0.7700
vt 0.7758 0.8610
vt 0.9086 0.7700
vt 0.8814 0.8968

f 1/1 2/2 3/3
f 1/1 3/3 4/4
f 5/5 6/6 7/7
f 5/5 7/7 8/8
f 9/9 10/10 11/11
f 9/9 11/11 12/12
f 13/13 14/14 15/15
f 13/13 15/15 16/16
f 17/17 18/18 19/19
f 17/17 19/19 20/20
f 21/21 22/22 23/23
f 21/21 23/23 24/24
f 25/25 26/26 27/27
f 25/25 27/27 28/28
f 29/29 30/30 31/31
f 29/29 31/31 32/32
f 33/33 34/34 35/35
f 33/33 35/35 36/36
f 37/37 38/38 39/39
f 37/37 39/39 40/40
f 41/41 42/42 43/43
f 41/41 43/43 44/44
f 45/45 46/46 47/47
f 45/45 47/47 48/48
f 49/49 50/50 51/51
f 49/49 51/51 52/52
f 53/53 54/54 55/55
f 53/53 55/55 56/56
f 57/57 58/58 59/59
f 57/57 59/59 60/60
f 61/61 62/62 63/63
f 61/61 63/63 64/64
f 65/65 66/66 67/67
f 65/65 67/67 68/68
f 69/69 70/70 71/71
f 69/69 71/71 72/72
f 73/73 74/74 75/75
f 73/73 75/75 76/76
f 77/77 78/78 79/79
f 77/77 79/79 80/80
f 81/81 82/82 83/83
f 81/81 83/83 84/84
f 85/85 86/86 87/87
f 85/85 87/87 88/88
f 89/89 90/90 91/91
f 89/89 91/91 92/92
f 93/93 94/94 95/95
f 93/93 95/95 96/96
f 97/97 98/98 99/99
f 100/100 101/101 102/102
f 103/103 104/104 105/105
f 106/106 107/107 108/108
f 109/109 110/110 111/111
f 112/112 113/113 114/114
f 115/115 116/116 117/117
f 118/118 119/119 120/120
f 121/121 122/122 123/123
f 124/124 125/125 126/126
f 127/127 128/128 129/129
f 130/130 131/131 132/132
f 133/133 134/134 135/135
f 136/136 137/137 138/138
f 139/139 140/140 141/141
f 142/142 143/143 144/144
f 145/145 146/146 147/147
f 148/148 149/149 150/150
f 151/151 152/152 153/153
f 154/154 155/155 156/156
f 157/157 158/158 159/159
f 160/160 161/161 162/162
