# Building: 718f4030-0622-4356-bb3c-46eb1ba73ccc
# POIs: ["Illegal Pete's - Pearl", 'Rocket Fizz Boulder, CO', 'Gelato Boy']
# Height: 7.0m

v -54.9096 0.0000 -32.2019
v -50.3059 0.0000 -49.3006
v -50.3059 7.0000 -49.3006
v -54.9096 0.0000 -32.2019
v -61.4995 0.0000 -33.8271
v -54.9096 0.0000 -32.2019
v -54.9096 7.0000 -32.2019
v -61.4995 0.0000 -33.8271
v -69.5559 0.0000 -35.4190
v -61.4995 0.0000 -33.8271
v -61.4995 7.0000 -33.8271
v -69.5559 0.0000 -35.4190
v -65.2506 0.0000 -53.3193
v -69.5559 0.0000 -35.4190
v -69.5559 7.0000 -35.4190
v -65.2506 0.0000 -53.3193
v -56.7169 0.0000 -51.0261
v -65.2506 0.0000 -53.3193
v -65.2506 7.0000 -53.3193
v -56.7169 0.0000 -51.0261
v -50.3059 0.0000 -49.3006
v -56.7169 0.0000 -51.0261
v -56.7169 7.0000 -51.0261
v -50.3059 0.0000 -49.3006
v -56.7169 7.0000 -51.0261
v -50.3059 7.0000 -49.3006
v -54.9096 7.0000 -32.2019
v -56.7169 7.0000 -51.0261
v -54.9096 7.0000 -32.2019
v -61.4995 7.0000 -33.8271
v -56.7169 7.0000 -51.0261
v -61.4995 7.0000 -33.8271
v -69.5559 7.0000 -35.4190
v -56.7169 7.0000 -51.0261
v -69.5559 7.0000 -35.4190
v -65.2506 7.0000 -53.3193

vt 0.0000 0.0000
vt 2.5297 0.0000
vt 2.5297 1.0000
vt 0.0000 1.0000
vt 0.0000 0.0000
vt 0.9696 0.0000
vt 0.9696 1.0000
vt 0.0000 1.0000
vt 0.0000 0.0000
vt 1.1732 0.0000
vt 1.1732 1.0000
vt 0.0000 1.0000
vt 0.0000 0.0000
vt 2.6301 0.0000
vt 2.6301 1.0000
vt 0.0000 1.0000
vt 0.0000 0.0000
vt 1.2624 0.0000
vt 1.2624 1.0000
vt 0.0000 1.0000
vt 0.0000 0.0000
vt 0.9484 0.0000
vt 0.9484 1.0000
vt 0.0000 1.0000
vt 0.6670 0.1086
vt 1.0000 0.1903
vt 0.7609 1.0000
vt 0.6670 0.1086
vt 0.7609 1.0000
vt 0.4185 0.9230
vt 0.6670 0.1086
vt 0.4185 0.9230
vt 0.0000 0.8477
vt 0.6670 0.1086
vt 0.0000 0.8477
vt 0.2236 0.0000

f 1/1 2/2 3/3
f 1/1 3/3 4/4
f 5/5 6/6 7/7
f 5/5 7/7 8/8
f 9/9 10/10 11/11
f 9/9 11/11 12/12
f 13/13 14/14 15/15
f 13/13 15/15 16/16
f 17/17 18/18 19/19
f 17/17 19/19 20/20
f 21/21 22/22 23/23
f 21/21 23/23 24/24
f 25/25 26/26 27/27
f 28/28 29/29 30/30
f 31/31 32/32 33/33
f 34/34 35/35 36/36
