# Building: f910024b-e0f8-4886-b0ed-c57b5022d29d
# POIs: ['Pedestrian Shops', "Illegal Pete's", 'Black Diamond']
# Height: 10.5m

v -94.1937 0.0000 -32.9032
v -86.3249 0.0000 -30.7992
v -86.3249 10.5000 -30.7992
v -94.1937 0.0000 -32.9032
v -87.4332 0.0000 -59.3751
v -94.1937 0.0000 -32.9032
v -94.1937 10.5000 -32.9032
v -87.4332 0.0000 -59.3751
v -65.2506 0.0000 -53.3193
v -87.4332 0.0000 -59.3751
v -87.4332 10.5000 -59.3751
v -65.2506 0.0000 -53.3193
v -69.5559 0.0000 -35.4190
v -65.2506 0.0000 -53.3193
v -65.2506 10.5000 -53.3193
v -69.5559 0.0000 -35.4190
v -75.3189 0.0000 -12.3535
v -69.5559 0.0000 -35.4190
v -69.5559 10.5000 -35.4190
v -75.3189 0.0000 -12.3535
v -89.9482 0.0000 -16.8731
v -75.3189 0.0000 -12.3535
v -75.3189 10.5000 -12.3535
v -89.9482 0.0000 -16.8731
v -86.3249 0.0000 -30.7992
v -89.9482 0.0000 -16.8731
v -89.9482 10.5000 -16.8731
v -86.3249 0.0000 -30.7992
v -86.3249 10.5000 -30.7992
v -94.1937 10.5000 -32.9032
v -87.4332 10.5000 -59.3751
v -86.3249 10.5000 -30.7992
v -87.4332 10.5000 -59.3751
v -65.2506 10.5000 -53.3193
v -89.9482 10.5000 -16.8731
v -86.3249 10.5000 -30.7992
v -65.2506 10.5000 -53.3193
v -89.9482 10.5000 -16.8731
v -65.2506 10.5000 -53.3193
v -69.5559 10.5000 -35.4190
v -89.9482 10.5000 -16.8731
v -69.5559 10.5000 -35.4190
v -75.3189 10.5000 -12.3535

vt 0.0000 0.0000
vt 0.7757 0.0000
vt 0.7757 1.0000
vt 0.0000 1.0000
vt 0.0000 0.0000
vt 2.6020 0.0000
vt 2.6020 1.0000
vt 0.0000 1.0000
vt 0.0000 0.0000
vt 2.1899 0.0000
vt 2.1899 1.0000
vt 0.0000 1.0000
vt 0.0000 0.0000
vt 1.7534 0.0000
vt 1.7534 1.0000
vt 0.0000 1.0000
vt 0.0000 0.0000
vt 2.2642 0.0000
vt 2.2642 1.0000
vt 0.0000 1.0000
vt 0.0000 0.0000
vt 1.4582 0.0000
vt 1.4582 1.0000
vt 0.0000 1.0000
vt 0.0000 0.0000
vt 1.3705 0.0000
vt 1.3705 1.0000
vt 0.0000 1.0000
vt 0.2719 0.6077
vt 0.0000 0.5630
vt 0.2336 0.0000
vt 0.2719 0.6077
vt 0.2336 0.0000
vt 1.0000 0.1288
vt 0.1467 0.9039
vt 0.2719 0.6077
vt 1.0000 0.1288
vt 0.1467 0.9039
vt 1.0000 0.1288
vt 0.8513 0.5095
vt 0.1467 0.9039
vt 0.8513 0.5095
vt 0.6521 1.0000

f 1/1 2/2 3/3
f 1/1 3/3 4/4
f 5/5 6/6 7/7
f 5/5 7/7 8/8
f 9/9 10/10 11/11
f 9/9 11/11 12/12
f 13/13 14/14 15/15
f 13/13 15/15 16/16
f 17/17 18/18 19/19
f 17/17 19/19 20/20
f 21/21 22/22 23/23
f 21/21 23/23 24/24
f 25/25 26/26 27/27
f 25/25 27/27 28/28
f 29/29 30/30 31/31
f 32/32 33/33 34/34
f 35/35 36/36 37/37
f 38/38 39/39 40/40
f 41/41 42/42 43/43
