# Building: 99a7504f-b210-48bf-b7e2-8c7af62291e2
# POIs: ['Sherpani', 'The Laughing Goat', 'Ascent Group']
# Height: 7.0m

v 206.7034 0.0000 47.9152
v 218.5194 0.0000 50.9653
v 218.5194 7.0000 50.9653
v 206.7034 0.0000 47.9152
v 209.4230 0.0000 37.1394
v 206.7034 0.0000 47.9152
v 206.7034 7.0000 47.9152
v 209.4230 0.0000 37.1394
v 208.0163 0.0000 36.8054
v 209.4230 0.0000 37.1394
v 209.4230 7.0000 37.1394
v 208.0163 0.0000 36.8054
v 212.0146 0.0000 22.2225
v 208.0163 0.0000 36.8054
v 208.0163 7.0000 36.8054
v 212.0146 0.0000 22.2225
v 226.1750 0.0000 25.8515
v 212.0146 0.0000 22.2225
v 212.0146 7.0000 22.2225
v 226.1750 0.0000 25.8515
v 222.3472 0.0000 40.1784
v 226.1750 0.0000 25.8515
v 226.1750 7.0000 25.8515
v 222.3472 0.0000 40.1784
v 221.4179 0.0000 40.3677
v 222.3472 0.0000 40.1784
v 222.3472 7.0000 40.1784
v 221.4179 0.0000 40.3677
v 218.5194 0.0000 50.9653
v 221.4179 0.0000 40.3677
v 221.4179 7.0000 40.3677
v 218.5194 0.0000 50.9653
v 221.4179 7.0000 40.3677
v 218.5194 7.0000 50.9653
v 206.7034 7.0000 47.9152
v 221.4179 7.0000 40.3677
v 206.7034 7.0000 47.9152
v 209.4230 7.0000 37.1394
v 209.4230 7.0000 37.1394
v 208.0163 7.0000 36.8054
v 212.0146 7.0000 22.2225
v 221.4179 7.0000 40.3677
v 209.4230 7.0000 37.1394
v 212.0146 7.0000 22.2225
v 221.4179 7.0000 40.3677
v 212.0146 7.0000 22.2225
v 226.1750 7.0000 25.8515
v 221.4179 7.0000 40.3677
v 226.1750 7.0000 25.8515
v 222.3472 7.0000 40.1784

vt 0.0000 0.0000
vt 1.7433 0.0000
vt 1.7433 1.0000
vt 0.0000 1.0000
vt 0.0000 0.0000
vt 1.5877 0.0000
vt 1.5877 1.0000
vt 0.0000 1.0000
vt 0.0000 0.0000
vt 0.2065 0.0000
vt 0.2065 1.0000
vt 0.0000 1.0000
vt 0.0000 0.0000
vt 2.1602 0.0000
vt 2.1602 1.0000
vt 0.0000 1.0000
vt 0.0000 0.0000
vt 2.0883 0.0000
vt 2.0883 1.0000
vt 0.0000 1.0000
vt 0.0000 0.0000
vt 2.1185 0.0000
vt 2.1185 1.0000
vt 0.0000 1.0000
vt 0.0000 0.0000
vt 0.1355 0.0000
vt 0.1355 1.0000
vt 0.0000 1.0000
vt 0.0000 0.0000
vt 1.5696 0.0000
vt 1.5696 1.0000
vt 0.0000 1.0000
vt 0.7557 0.6313
vt 0.6068 1.0000
vt 0.0000 0.8939
vt 0.7557 0.6313
vt 0.0000 0.8939
vt 0.1397 0.5190
vt 0.1397 0.5190
vt 0.0674 0.5074
vt 0.2728 0.0000
vt 0.7557 0.6313
vt 0.1397 0.5190
vt 0.2728 0.0000
vt 0.7557 0.6313
vt 0.2728 0.0000
vt 1.0000 0.1263
vt 0.7557 0.6313
vt 1.0000 0.1263
vt 0.8034 0.6247

f 1/1 2/2 3/3
f 1/1 3/3 4/4
f 5/5 6/6 7/7
f 5/5 7/7 8/8
f 9/9 10/10 11/11
f 9/9 11/11 12/12
f 13/13 14/14 15/15
f 13/13 15/15 16/16
f 17/17 18/18 19/19
f 17/17 19/19 20/20
f 21/21 22/22 23/23
f 21/21 23/23 24/24
f 25/25 26/26 27/27
f 25/25 27/27 28/28
f 29/29 30/30 31/31
f 29/29 31/31 32/32
f 33/33 34/34 35/35
f 36/36 37/37 38/38
f 39/39 40/40 41/41
f 42/42 43/43 44/44
f 45/45 46/46 47/47
f 48/48 49/49 50/50
