# Building: dcd74ab9-0403-4a19-8bfe-eadfa5e5a248
# POIs: ['The Corner Bar', 'License No. 1', 'Spruce Farm & Fish', 'Hotel Boulderado']
# Height: 18.0m

v -315.9087 0.0000 44.6646
v -315.6615 0.0000 43.7407
v -315.6615 18.0000 43.7407
v -315.9087 0.0000 44.6646
v -327.9122 0.0000 41.4363
v -315.9087 0.0000 44.6646
v -315.9087 18.0000 44.6646
v -327.9122 0.0000 41.4363
v -327.2899 0.0000 39.1097
v -327.9122 0.0000 41.4363
v -327.9122 18.0000 41.4363
v -327.2899 0.0000 39.1097
v -333.3087 0.0000 37.4956
v -327.2899 0.0000 39.1097
v -327.2899 18.0000 39.1097
v -333.3087 0.0000 37.4956
v -333.9907 0.0000 40.0003
v -333.3087 0.0000 37.4956
v -333.3087 18.0000 37.4956
v -333.9907 0.0000 40.0003
v -342.3198 0.0000 37.7628
v -333.9907 0.0000 40.0003
v -333.9907 18.0000 40.0003
v -342.3198 0.0000 37.7628
v -331.5695 0.0000 -2.2234
v -342.3198 0.0000 37.7628
v -342.3198 18.0000 37.7628
v -331.5695 0.0000 -2.2234
v -305.7467 0.0000 4.7230
v -331.5695 0.0000 -2.2234
v -331.5695 18.0000 -2.2234
v -305.7467 0.0000 4.7230
v -310.3247 0.0000 21.7550
v -305.7467 0.0000 4.7230
v -305.7467 18.0000 4.7230
v -310.3247 0.0000 21.7550
v -304.6043 0.0000 23.2912
v -310.3247 0.0000 21.7550
v -310.3247 18.0000 21.7550
v -304.6043 0.0000 23.2912
v -306.3861 0.0000 29.8924
v -304.6043 0.0000 23.2912
v -304.6043 18.0000 23.2912
v -306.3861 0.0000 29.8924
v -310.2991 0.0000 28.8460
v -306.3861 0.0000 29.8924
v -306.3861 18.0000 29.8924
v -310.2991 0.0000 28.8460
v -310.5890 0.0000 29.9147
v -310.2991 0.0000 28.8460
v -310.2991 18.0000 28.8460
v -310.5890 0.0000 29.9147
v -308.7305 0.0000 30.4156
v -310.5890 0.0000 29.9147
v -310.5890 18.0000 29.9147
v -308.7305 0.0000 30.4156
v -312.5413 0.0000 44.5867
v -308.7305 0.0000 30.4156
v -308.7305 18.0000 30.4156
v -312.5413 0.0000 44.5867
v -315.6615 0.0000 43.7407
v -312.5413 0.0000 44.5867
v -312.5413 18.0000 44.5867
v -315.6615 0.0000 43.7407
v -315.6615 18.0000 43.7407
v -315.9087 18.0000 44.6646
v -327.9122 18.0000 41.4363
v -315.6615 18.0000 43.7407
v -327.9122 18.0000 41.4363
v -327.2899 18.0000 39.1097
v -312.5413 18.0000 44.5867
v -315.6615 18.0000 43.7407
v -327.2899 18.0000 39.1097
v -333.3087 18.0000 37.4956
v -333.9907 18.0000 40.0003
v -342.3198 18.0000 37.7628
v -333.3087 18.0000 37.4956
v -342.3198 18.0000 37.7628
v -331.5695 18.0000 -2.2234
v -327.2899 18.0000 39.1097
v -333.3087 18.0000 37.4956
v -331.5695 18.0000 -2.2234
v -312.5413 18.0000 44.5867
v -327.2899 18.0000 39.1097
v -331.5695 18.0000 -2.2234
v -331.5695 18.0000 -2.2234
v -305.7467 18.0000 4.7230
v -310.3247 18.0000 21.7550
v -312.5413 18.0000 44.5867
v -331.5695 18.0000 -2.2234
v -310.3247 18.0000 21.7550
v -310.3247 18.0000 21.7550
v -304.6043 18.0000 23.2912
v -306.3861 18.0000 29.8924
v -310.3247 18.0000 21.7550
v -306.3861 18.0000 29.8924
v -310.2991 18.0000 28.8460
v -310.3247 18.0000 21.7550
v -310.2991 18.0000 28.8460
v -310.5890 18.0000 29.9147
v -312.5413 18.0000 44.5867
v -310.3247 18.0000 21.7550
v -310.5890 18.0000 29.9147
v -312.5413 18.0000 44.5867
v -310.5890 18.0000 29.9147
v -308.7305 18.0000 30.4156

vt 0.0000 0.0000
vt 0.0531 0.0000
vt 0.0531 1.0000
vt 0.0000 1.0000
vt 0.0000 0.0000
vt 0.6906 0.0000
vt 0.6906 1.0000
vt 0.0000 1.0000
vt 0.0000 0.0000
vt 0.1338 0.0000
vt 0.1338 1.0000
vt 0.0000 1.0000
vt 0.0000 0.0000
vt 0.3462 0.0000
vt 0.3462 1.0000
vt 0.0000 1.0000
vt 0.0000 0.0000
vt 0.1442 0.0000
vt 0.1442 1.0000
vt 0.0000 1.0000
vt 0.0000 0.0000
vt 0.4791 0.0000
vt 0.4791 1.0000
vt 0.0000 1.0000
vt 0.0000 0.0000
vt 2.3003 0.0000
vt 2.3003 1.0000
vt 0.0000 1.0000
vt 0.0000 0.0000
vt 1.4856 0.0000
vt 1.4856 1.0000
vt 0.0000 1.0000
vt 0.0000 0.0000
vt 0.9798 0.0000
vt 0.9798 1.0000
vt 0.0000 1.0000
vt 0.0000 0.0000
vt 0.3291 0.0000
vt 0.3291 1.0000
vt 0.0000 1.0000
vt 0.0000 0.0000
vt 0.3799 0.0000
vt 0.3799 1.0000
vt 0.0000 1.0000
vt 0.0000 0.0000
vt 0.2250 0.0000
vt 0.2250 1.0000
vt 0.0000 1.0000
vt 0.0000 0.0000
vt 0.0615 0.0000
vt 0.0615 1.0000
vt 0.0000 1.0000
vt 0.0000 0.0000
vt 0.1069 0.0000
vt 0.1069 1.0000
vt 0.0000 1.0000
vt 0.0000 0.0000
vt 0.8152 0.0000
vt 0.8152 1.0000
vt 0.0000 1.0000
vt 0.0000 0.0000
vt 0.1796 0.0000
vt 0.1796 1.0000
vt 0.0000 1.0000
vt 0.7068 0.9803
vt 0.7003 1.0000
vt 0.3820 0.9311
vt 0.7068 0.9803
vt 0.3820 0.9311
vt 0.3985 0.8815
vt 0.7896 0.9983
vt 0.7068 0.9803
vt 0.3985 0.8815
vt 0.2389 0.8471
vt 0.2208 0.9005
vt 0.0000 0.8528
vt 0.2389 0.8471
vt 0.0000 0.8528
vt 0.2850 0.0000
vt 0.3985 0.8815
vt 0.2389 0.8471
vt 0.2850 0.0000
vt 0.7896 0.9983
vt 0.3985 0.8815
vt 0.2850 0.0000
vt 0.2850 0.0000
vt 0.9697 0.1481
vt 0.8483 0.5114
vt 0.7896 0.9983
vt 0.2850 0.0000
vt 0.8483 0.5114
vt 0.8483 0.5114
vt 1.0000 0.5442
vt 0.9528 0.6849
vt 0.8483 0.5114
vt 0.9528 0.6849
vt 0.8490 0.6626
vt 0.8483 0.5114
vt 0.8490 0.6626
vt 0.8413 0.6854
vt 0.7896 0.9983
vt 0.8483 0.5114
vt 0.8413 0.6854
vt 0.7896 0.9983
vt 0.8413 0.6854
vt 0.8906 0.6961

f 1/1 2/2 3/3
f 1/1 3/3 4/4
f 5/5 6/6 7/7
f 5/5 7/7 8/8
f 9/9 10/10 11/11
f 9/9 11/11 12/12
f 13/13 14/14 15/15
f 13/13 15/15 16/16
f 17/17 18/18 19/19
f 17/17 19/19 20/20
f 21/21 22/22 23/23
f 21/21 23/23 24/24
f 25/25 26/26 27/27
f 25/25 27/27 28/28
f 29/29 30/30 31/31
f 29/29 31/31 32/32
f 33/33 34/34 35/35
f 33/33 35/35 36/36
f 37/37 38/38 39/39
f 37/37 39/39 40/40
f 41/41 42/42 43/43
f 41/41 43/43 44/44
f 45/45 46/46 47/47
f 45/45 47/47 48/48
f 49/49 50/50 51/51
f 49/49 51/51 52/52
f 53/53 54/54 55/55
f 53/53 55/55 56/56
f 57/57 58/58 59/59
f 57/57 59/59 60/60
f 61/61 62/62 63/63
f 61/61 63/63 64/64
f 65/65 66/66 67/67
f 68/68 69/69 70/70
f 71/71 72/72 73/73
f 74/74 75/75 76/76
f 77/77 78/78 79/79
f 80/80 81/81 82/82
f 83/83 84/84 85/85
f 86/86 87/87 88/88
f 89/89 90/90 91/91
f 92/92 93/93 94/94
f 95/95 96/96 97/97
f 98/98 99/99 100/100
f 101/101 102/102 103/103
f 104/104 105/105 106/106
